<svg width="14" height="14" viewBox="0 0 14 14" fill="none" xmlns="http://www.w3.org/2000/svg">
<path fill-rule="evenodd" clip-rule="evenodd" d="M13.4 7.2505C13.4 7.68332 13.3559 8.11554 13.2694 8.53685C13.185 8.94816 13.06 9.35196 12.8962 9.73798C12.7362 10.1172 12.5378 10.4826 12.3059 10.8233C12.0774 11.162 11.8143 11.4796 11.5252 11.7692C11.2355 12.0576 10.9167 12.32 10.5783 12.5494C10.2364 12.7797 9.87047 12.9778 9.49106 13.1386C9.10448 13.3015 8.69975 13.4263 8.2888 13.5105C7.86693 13.5973 7.43313 13.6416 6.99969 13.6416C6.56592 13.6416 6.13215 13.5973 5.71088 13.5105C5.2993 13.4263 4.89459 13.3015 4.50832 13.1386C4.12893 12.9778 3.76264 12.7797 3.42076 12.5494C3.0823 12.32 2.76354 12.0576 2.47446 11.7692C2.18508 11.4796 1.92193 11.162 1.69317 10.8233C1.46253 10.4826 1.26376 10.1171 1.10313 9.73798C0.939356 9.35196 0.814055 8.94813 0.72936 8.53685C0.643738 8.11554 0.599976 7.68332 0.599976 7.2505C0.599976 6.81736 0.643713 6.38421 0.729385 5.96383C0.81408 5.55252 0.939381 5.14809 1.10316 4.7627C1.26378 4.38324 1.46256 4.0175 1.69319 3.67671C1.92195 3.33782 2.18511 3.02074 2.47449 2.73083C2.76357 2.44247 3.08233 2.18067 3.42078 1.95162C3.76267 1.72036 4.12895 1.52222 4.50834 1.36118C4.89462 1.19794 5.2993 1.07282 5.7109 0.989198C6.13217 0.903075 6.56594 0.859375 6.99971 0.859375C7.43316 0.859375 7.86693 0.903075 8.28882 0.989198C8.69977 1.07285 9.10448 1.19797 9.49109 1.36118C9.87047 1.5222 10.2364 1.72036 10.5783 1.95162C10.9168 2.18067 11.2356 2.44247 11.5252 2.73083C11.8143 3.02074 12.0775 3.33782 12.3059 3.67671C12.5378 4.0175 12.7362 4.38326 12.8962 4.7627C13.06 5.14809 13.185 5.55252 13.2694 5.96383C13.3559 6.38421 13.4 6.81736 13.4 7.2505ZM4.66766 2.31391C3.14351 3.03261 2.00595 4.43503 1.65124 6.12518C1.79533 6.12643 4.07295 6.15515 6.69713 5.45891C5.75116 3.78061 4.74049 2.41099 4.66766 2.31391ZM7.14997 6.29933C4.33577 7.14063 1.6353 7.0801 1.53844 7.07637C1.53686 7.13503 1.53405 7.19181 1.53405 7.2505C1.53405 8.65259 2.06376 9.93081 2.93444 10.8973C2.93256 10.8945 4.42828 8.24473 7.3778 7.29232C7.44904 7.26861 7.52156 7.24737 7.59343 7.22678C7.45626 6.91661 7.30653 6.60578 7.14997 6.29933ZM10.6092 3.15431C9.64698 2.30704 8.3835 1.7931 6.99967 1.7931C6.55558 1.7931 6.12461 1.84678 5.71179 1.94601C5.79365 2.05587 6.82028 3.41584 7.75501 5.12968C9.81732 4.35764 10.5958 3.17428 10.6092 3.15431ZM7.96599 8.13115C7.95382 8.13517 7.94165 8.13865 7.92975 8.143C4.70494 9.26559 3.65184 11.5279 3.64045 11.5526C4.56833 12.2732 5.73214 12.7079 6.99971 12.7079C7.7566 12.7079 8.47757 12.554 9.13354 12.2754C9.0526 11.7985 8.73509 10.1271 7.96599 8.13115ZM10.0539 11.7767C11.2811 10.9497 12.1527 9.63657 12.3959 8.11551C12.2834 8.07932 10.7542 7.59592 8.99006 7.87835C9.70697 9.84564 9.99825 11.4478 10.0539 11.7767ZM8.1757 5.94293C8.30256 6.2032 8.4254 6.4681 8.53883 6.73433C8.57916 6.82983 8.61854 6.92346 8.65697 7.01706C10.5346 6.78113 12.3843 7.17808 12.4634 7.19429C12.4509 5.90048 11.9874 4.71306 11.2206 3.78344C11.2102 3.79807 10.3336 5.06289 8.1757 5.94293Z" fill="#949494"/>
</svg>
