<svg width="417" height="239" viewBox="0 0 417 239" fill="none" xmlns="http://www.w3.org/2000/svg">
<path d="M5 125H103" stroke="#F1F1F1" stroke-width="10" stroke-linecap="round"/>
<path d="M30 100L103.182 100.983" stroke="#F1F1F1" stroke-width="10" stroke-linecap="round"/>
<path d="M30 149L103.182 149.983" stroke="#F1F1F1" stroke-width="10" stroke-linecap="round"/>
<path d="M220.512 93.914L284.744 48.4707L226 14.5M190.828 145.417L134.276 114.111V155.515L106 175.712V62.6086L311 175.712V64.6283L280.704 85.8352V128.249L137.305 46.451L192 14.5M190.828 145.417L278.685 193.889C278.685 193.889 247.606 212.223 226 224.185M190.828 145.417L133.266 190.86C133.266 190.86 169.986 211.296 192 224.185" stroke="#F1F1F1" stroke-width="10" stroke-linecap="round"/>
<path d="M160.543 169.654C162.966 172.886 188.145 187.158 199.927 194.9M246.38 176.723L218.104 194.9" stroke="#F1F1F1" stroke-width="10"/>
<path d="M199.925 43.4249L166.6 62.6121M220.122 42.4151L257.487 67.6613" stroke="#F1F1F1" stroke-width="10"/>
<path d="M228.246 24.2364C228.246 34.8604 219.633 43.4729 209.009 43.4729C198.385 43.4729 189.773 34.8604 189.773 24.2364C189.773 13.6125 198.385 5 209.009 5C219.633 5 228.246 13.6125 228.246 24.2364Z" stroke="#F1F1F1" stroke-width="10"/>
<path d="M228.246 214.086C228.246 224.71 219.633 233.323 209.009 233.323C198.385 233.323 189.773 224.71 189.773 214.086C189.773 203.462 198.385 194.85 209.009 194.85C219.633 194.85 228.246 203.462 228.246 214.086Z" stroke="#F1F1F1" stroke-width="10"/>
<path d="M314 125H412" stroke="#F1F1F1" stroke-width="10" stroke-linecap="round"/>
<path d="M314 100L387.182 100.983" stroke="#F1F1F1" stroke-width="10" stroke-linecap="round"/>
<path d="M314 149L387.182 149.983" stroke="#F1F1F1" stroke-width="10" stroke-linecap="round"/>
</svg>
