<svg width="14" height="14" viewBox="0 0 14 14" fill="none" xmlns="http://www.w3.org/2000/svg">
<path fill-rule="evenodd" clip-rule="evenodd" d="M7.00058 0.859375C5.26242 0.859375 5.04429 0.866975 4.36161 0.898042C3.68027 0.929242 3.2152 1.03711 2.80827 1.19538C2.38733 1.35885 2.03026 1.57752 1.67452 1.93339C1.31852 2.28912 1.09985 2.64619 0.935846 3.067C0.777177 3.47407 0.669176 3.93927 0.638509 4.62035C0.607976 5.30302 0.599976 5.52129 0.599976 7.25944C0.599976 8.99759 0.607709 9.21506 0.638643 9.89773C0.669976 10.5791 0.777844 11.0441 0.935979 11.4511C1.09958 11.872 1.31825 12.2291 1.67412 12.5848C2.02972 12.9408 2.38679 13.16 2.80747 13.3235C3.21467 13.4818 3.67987 13.5896 4.36108 13.6208C5.04376 13.6519 5.26176 13.6595 6.99978 13.6595C8.73806 13.6595 8.95553 13.6519 9.6382 13.6208C10.3195 13.5896 10.7851 13.4818 11.1924 13.3235C11.6132 13.16 11.9697 12.9408 12.3253 12.5848C12.6813 12.2291 12.9 11.872 13.064 11.4512C13.2213 11.0441 13.3293 10.5789 13.3613 9.89787C13.392 9.21519 13.4 8.99759 13.4 7.25944C13.4 5.52129 13.392 5.30315 13.3613 4.62048C13.3293 3.93914 13.2213 3.47407 13.064 3.06713C12.9 2.64619 12.6813 2.28912 12.3253 1.93339C11.9693 1.57738 11.6133 1.35871 11.192 1.19538C10.7839 1.03711 10.3186 0.929242 9.63727 0.898042C8.9546 0.866975 8.73726 0.859375 6.99858 0.859375H7.00058ZM6.42641 2.0127C6.59681 2.01244 6.78695 2.0127 7.00055 2.0127C8.70937 2.0127 8.9119 2.01884 9.58671 2.0495C10.2107 2.07804 10.5494 2.1823 10.775 2.2699C11.0737 2.38591 11.2866 2.52457 11.5105 2.74858C11.7345 2.97258 11.8731 3.18591 11.9894 3.48458C12.077 3.70992 12.1814 4.04859 12.2098 4.6726C12.2405 5.34727 12.2471 5.54994 12.2471 7.25796C12.2471 8.96598 12.2405 9.16864 12.2098 9.84332C12.1813 10.4673 12.077 10.806 11.9894 11.0313C11.8734 11.33 11.7345 11.5427 11.5105 11.7665C11.2865 11.9905 11.0738 12.1292 10.775 12.2452C10.5497 12.3332 10.2107 12.4372 9.58671 12.4657C8.91203 12.4964 8.70937 12.5031 7.00055 12.5031C5.2916 12.5031 5.08906 12.4964 4.41439 12.4657C3.79038 12.4369 3.45171 12.3327 3.22598 12.2451C2.92731 12.1291 2.71397 11.9904 2.48997 11.7664C2.26597 11.5424 2.1273 11.3296 2.01103 11.0308C1.92343 10.8055 1.81903 10.4668 1.79063 9.84278C1.75996 9.16811 1.75383 8.96544 1.75383 7.25636C1.75383 5.54727 1.75996 5.34567 1.79063 4.671C1.81916 4.04699 1.92343 3.70832 2.01103 3.48272C2.12703 3.18405 2.26597 2.97071 2.48997 2.74671C2.71397 2.52271 2.92731 2.38404 3.22598 2.26777C3.45158 2.17977 3.79038 2.07577 4.41439 2.0471C5.00479 2.02044 5.2336 2.01244 6.42641 2.0111V2.0127ZM10.4169 3.07538C9.99285 3.07538 9.64885 3.41899 9.64885 3.84312C9.64885 4.26713 9.99285 4.61113 10.4169 4.61113C10.8409 4.61113 11.1849 4.26713 11.1849 3.84312C11.1849 3.41912 10.8409 3.07538 10.4169 3.07538ZM7.00059 3.97272C5.1855 3.97272 3.71389 5.44434 3.71389 7.25942C3.71389 9.07451 5.1855 10.5455 7.00059 10.5455C8.81567 10.5455 10.2868 9.07451 10.2868 7.25942C10.2868 5.44434 8.81567 3.97272 7.00059 3.97272ZM7.00056 5.12607C8.17871 5.12607 9.13392 6.08114 9.13392 7.25942C9.13392 8.43757 8.17871 9.39278 7.00056 9.39278C5.82228 9.39278 4.86721 8.43757 4.86721 7.25942C4.86721 6.08114 5.82228 5.12607 7.00056 5.12607Z" fill="#949494"/>
</svg>
