<svg width="12" height="11" viewBox="0 0 12 11" fill="none" xmlns="http://www.w3.org/2000/svg">
<path fill-rule="evenodd" clip-rule="evenodd" d="M5.6406 3.01322L5.66578 3.42845L5.2461 3.37761C3.71843 3.1827 2.38383 2.52173 1.25067 1.41163L0.696681 0.860821L0.553988 1.26757C0.251813 2.17429 0.444869 3.13186 1.0744 3.77589C1.41015 4.13179 1.33461 4.18264 0.755438 3.97079C0.553988 3.903 0.377719 3.85215 0.360931 3.87757C0.302175 3.93689 0.503625 4.70803 0.663106 5.01309C0.881344 5.43679 1.32621 5.85202 1.81305 6.09777L2.22434 6.29267L1.73751 6.30114C1.26746 6.30114 1.25067 6.30962 1.30103 6.48757C1.46891 7.03838 2.13201 7.62309 2.87066 7.87731L3.39108 8.05527L2.93781 8.32643C2.26631 8.71624 1.4773 8.93656 0.688288 8.95351C0.310569 8.96199 0 8.99588 0 9.0213C0 9.10604 1.02404 9.58059 1.61999 9.76702C3.40786 10.3178 5.53148 10.0806 7.1263 9.13994C8.25945 8.47049 9.39261 7.14007 9.92142 5.85202C10.2068 5.16562 10.4922 3.91147 10.4922 3.30981C10.4922 2.92001 10.5174 2.86916 10.9874 2.40309C11.2644 2.13192 11.5246 1.83533 11.575 1.75059C11.6589 1.58959 11.6505 1.58959 11.2224 1.73365C10.509 1.98787 10.4083 1.95397 10.7608 1.57264C11.021 1.30147 11.3316 0.809977 11.3316 0.665919C11.3316 0.640497 11.2057 0.682867 11.063 0.759133C10.9119 0.843873 10.5761 0.970984 10.3243 1.04725L9.87105 1.19131L9.45976 0.911666C9.23313 0.759133 8.91417 0.589653 8.74629 0.538809C8.31821 0.420172 7.6635 0.43712 7.27738 0.572705C6.22816 0.954036 5.56506 1.93702 5.6406 3.01322Z" fill="#949494"/>
</svg>
