<svg width="14" height="11" viewBox="0 0 14 11" fill="none" xmlns="http://www.w3.org/2000/svg">
<path fill-rule="evenodd" clip-rule="evenodd" d="M12.0008 1.13404C12.5515 1.28517 12.9853 1.73048 13.1325 2.29598C13.4 3.32089 13.4 5.45938 13.4 5.45938C13.4 5.45938 13.4 7.59778 13.1325 8.62277C12.9853 9.18827 12.5515 9.63358 12.0008 9.78478C11.0027 10.0594 6.99998 10.0594 6.99998 10.0594C6.99998 10.0594 2.99728 10.0594 1.9991 9.78478C1.44834 9.63358 1.01459 9.18827 0.867394 8.62277C0.599976 7.59778 0.599976 5.45938 0.599976 5.45938C0.599976 5.45938 0.599976 3.32089 0.867394 2.29598C1.01459 1.73048 1.44834 1.28517 1.9991 1.13404C2.99728 0.859375 6.99998 0.859375 6.99998 0.859375C6.99998 0.859375 11.0027 0.859375 12.0008 1.13404ZM5.79999 3.65933V7.65933L8.99999 5.65941L5.79999 3.65933Z" fill="#949494"/>
</svg>
